<svg width="40" height="25" viewBox="0 0 40 25" fill="none" xmlns="http://www.w3.org/2000/svg">
<g clip-path="url(#clip0_1_5361)">
<path d="M3.77702 24.5705H3.2655V18.6397H3.77702V24.5705ZM7.55122 18.6397C8.04891 18.6397 8.49131 18.7088 8.89223 18.847C9.29315 18.9853 9.62495 19.1788 9.90145 19.4415C10.1779 19.7042 10.3853 20.0083 10.5374 20.3816C10.6895 20.741 10.7586 21.1558 10.7586 21.612C10.7586 22.0682 10.6895 22.483 10.5374 22.8424C10.3853 23.2019 10.1779 23.5198 9.90145 23.7825C9.62495 24.0452 9.29315 24.2387 8.89223 24.377C8.49131 24.5152 8.04891 24.5844 7.55122 24.5844H5.38071V18.6535H7.55122V18.6397ZM5.90606 19.1235V24.0728H7.55122C7.97979 24.0728 8.36689 24.0175 8.69868 23.8931C9.03048 23.7825 9.30698 23.6166 9.52818 23.3954C9.74937 23.1742 9.9291 22.9254 10.0397 22.6212C10.1503 22.3171 10.2194 21.9715 10.2194 21.5982C10.2194 21.2249 10.1641 20.8793 10.0397 20.5751C9.9291 20.271 9.74937 20.0083 9.52818 19.7871C9.30698 19.5659 9.03048 19.4 8.69868 19.2894C8.36689 19.1788 7.97979 19.1097 7.55122 19.1097H5.90606V19.1235ZM16.7724 18.5705C17.0213 18.5705 17.2701 18.5982 17.5051 18.6535C17.7402 18.7088 17.9614 18.7917 18.1687 18.9023C18.3761 19.0129 18.5697 19.1373 18.7356 19.2894C18.9014 19.4415 19.0535 19.6074 19.1641 19.8009L18.7356 20.0913C18.6388 19.9392 18.5144 19.8009 18.3761 19.6765C18.2379 19.5521 18.0858 19.4415 17.9199 19.3585C17.754 19.2756 17.5743 19.2065 17.3807 19.1512C17.1872 19.0959 16.9936 19.082 16.7862 19.082C16.4268 19.082 16.1088 19.1373 15.8047 19.2618C15.5005 19.3862 15.2379 19.5521 15.0167 19.7733C14.7955 19.9945 14.6157 20.2572 14.4913 20.5751C14.3669 20.8793 14.2978 21.2249 14.2978 21.612C14.2978 21.9853 14.3669 22.3309 14.4913 22.6489C14.6157 22.953 14.7955 23.2295 15.0167 23.4507C15.2379 23.6719 15.5005 23.8516 15.8047 23.9622C16.1088 24.0867 16.4406 24.142 16.7862 24.142C16.9936 24.142 17.1872 24.1143 17.3807 24.0728C17.5743 24.0314 17.754 23.9622 17.9199 23.8793C18.0858 23.7963 18.2379 23.6857 18.3761 23.5613C18.5144 23.4369 18.6388 23.2986 18.7356 23.1327L19.1641 23.4369C19.0397 23.6166 18.8876 23.7963 18.7217 23.9346C18.5558 24.0867 18.3623 24.2111 18.1687 24.3079C17.9614 24.4185 17.7402 24.4876 17.5051 24.5429C17.2701 24.5982 17.0213 24.6258 16.7724 24.6258C16.3438 24.6258 15.9429 24.5567 15.5697 24.4046C15.1964 24.2526 14.8784 24.0452 14.6019 23.7825C14.3254 23.5198 14.118 23.2019 13.966 22.8286C13.8139 22.4553 13.7309 22.0544 13.7309 21.5982C13.7309 21.1558 13.8139 20.741 13.966 20.3678C14.118 19.9945 14.3392 19.6765 14.6019 19.4138C14.8784 19.1512 15.1964 18.9438 15.5697 18.7917C15.9429 18.6397 16.3438 18.5705 16.7724 18.5705ZM20.7678 21.2664C20.8508 21.142 20.9337 21.0175 21.0443 20.9208C21.1549 20.824 21.2655 20.741 21.3899 20.6857C21.5144 20.6304 21.6388 20.5751 21.777 20.5475C21.9153 20.5198 22.0535 20.506 22.1779 20.506C22.4268 20.506 22.648 20.5475 22.8554 20.6166C23.0627 20.6857 23.2425 20.7963 23.3807 20.9346C23.5328 21.0728 23.6434 21.2387 23.7263 21.4461C23.8093 21.6397 23.8508 21.8747 23.8508 22.1097V24.5567H23.3669V22.2618C23.3669 22.0544 23.3392 21.8747 23.2839 21.7226C23.2286 21.5567 23.1457 21.4185 23.0351 21.3079C22.9245 21.1973 22.7862 21.1143 22.6342 21.0452C22.4821 20.9899 22.2885 20.9622 22.095 20.9622C21.9153 20.9622 21.7356 20.9899 21.5697 21.059C21.4038 21.1281 21.2655 21.2111 21.1411 21.3355C21.0167 21.4461 20.9199 21.5982 20.8508 21.7503C20.7816 21.9162 20.7402 22.0959 20.7402 22.2894V24.5567H20.2839V18.4461H20.7678V21.2664ZM26.7402 20.5198C27.0028 20.5198 27.2517 20.5751 27.4867 20.6719C27.7217 20.7687 27.9153 20.9069 28.0812 21.0867C28.2471 21.2664 28.3715 21.4876 28.4683 21.7364C28.565 21.9853 28.6203 22.2618 28.6203 22.5521C28.6203 22.5936 28.6203 22.6212 28.6203 22.6627C28.6203 22.6903 28.6203 22.7318 28.6203 22.7595H25.2747C25.2885 22.9945 25.3438 23.2019 25.4268 23.3816C25.5097 23.5613 25.6203 23.7134 25.7586 23.8378C25.8968 23.9622 26.0627 24.059 26.2286 24.1281C26.4084 24.1973 26.6019 24.2249 26.8093 24.2249C27.0858 24.2249 27.3346 24.1696 27.5558 24.0728C27.777 23.9761 27.9706 23.8378 28.1503 23.6581L28.413 23.9899C28.2885 24.1143 28.1503 24.2249 28.0259 24.3079C27.8876 24.3908 27.7632 24.4599 27.625 24.5152C27.4867 24.5705 27.3485 24.5982 27.2102 24.6258C27.072 24.6535 26.9199 24.6535 26.7816 24.6535C26.4913 24.6535 26.2286 24.5982 25.9798 24.5014C25.7309 24.4046 25.5236 24.2664 25.3438 24.0728C25.1641 23.8931 25.0259 23.6719 24.9291 23.4231C24.8323 23.1742 24.777 22.8977 24.777 22.5936C24.777 22.2894 24.8323 22.0129 24.9291 21.7641C25.0259 21.5152 25.1641 21.294 25.3438 21.1143C25.5236 20.9346 25.7309 20.7963 25.966 20.6857C26.201 20.5751 26.4498 20.5198 26.7402 20.5198ZM26.7263 20.9484C26.519 20.9484 26.3392 20.9899 26.1733 21.059C26.0074 21.1281 25.8554 21.2249 25.7309 21.3493C25.6065 21.4738 25.4959 21.612 25.413 21.7917C25.33 21.9576 25.2747 22.1512 25.2609 22.3447H28.1088C28.095 22.1373 28.0397 21.9438 27.9706 21.7779C27.8876 21.612 27.7909 21.4599 27.6664 21.3355C27.542 21.2111 27.4038 21.1143 27.2379 21.0452C27.0858 20.9761 26.9199 20.9484 26.7263 20.9484ZM31.3853 20.5198C31.6756 20.5198 31.9521 20.5751 32.2148 20.6719C32.4637 20.7825 32.6849 20.9346 32.8646 21.1281L32.5466 21.4599C32.3945 21.3079 32.2148 21.1834 32.0213 21.1005C31.8277 21.0175 31.6065 20.9761 31.3715 20.9761C31.1503 20.9761 30.9568 21.0175 30.7632 21.1005C30.5697 21.1834 30.4176 21.294 30.2793 21.4323C30.1411 21.5705 30.0305 21.7503 29.9614 21.9438C29.8784 22.1373 29.8508 22.3585 29.8508 22.5797C29.8508 22.8148 29.8922 23.0221 29.9614 23.2157C30.0443 23.4092 30.1411 23.5751 30.2793 23.7272C30.4176 23.8655 30.5835 23.9761 30.7632 24.059C30.9568 24.142 31.1503 24.1834 31.3715 24.1834C31.6065 24.1834 31.8277 24.142 32.0213 24.0452C32.2148 23.9484 32.3945 23.8378 32.5466 23.6857L32.8508 24.0175C32.671 24.2249 32.4498 24.377 32.201 24.4738C31.9521 24.5705 31.6756 24.6258 31.3853 24.6258C31.0812 24.6258 30.8047 24.5705 30.5558 24.4738C30.307 24.3632 30.0858 24.2249 29.9061 24.0452C29.7263 23.8655 29.5881 23.6443 29.4775 23.3954C29.3807 23.1466 29.3254 22.8701 29.3254 22.5797C29.3254 22.2894 29.3807 22.0129 29.4775 21.7641C29.5743 21.5152 29.7125 21.294 29.9061 21.1143C30.0858 20.9346 30.307 20.7825 30.5558 20.6857C30.8185 20.5613 31.0812 20.5198 31.3853 20.5198ZM34.3162 22.2618H34.966L36.6388 20.5751H37.2471L35.3531 22.4553L37.2885 24.5567H36.6803L34.966 22.6903H34.3162V24.5567H33.8323V18.4461H34.3162V22.2618Z" fill="black"/>
<path d="M12.266 1.70416H7.91113V9.52905H12.266V1.70416Z" fill="#F26522"/>
<path d="M8.18723 5.61661C8.18723 4.02675 8.93377 2.61661 10.0812 1.70416C9.23792 1.04057 8.1734 0.639648 7.01211 0.639648C4.26096 0.639648 2.03516 2.86545 2.03516 5.61661C2.03516 8.36776 4.26096 10.5936 7.01211 10.5936C8.1734 10.5936 9.23792 10.1926 10.0812 9.52905C8.93377 8.61661 8.18723 7.20647 8.18723 5.61661Z" fill="#E51B24"/>
<path d="M18.141 5.61661C18.141 8.36776 15.9152 10.5936 13.164 10.5936C12.0027 10.5936 10.9382 10.1926 10.0949 9.52905C11.2423 8.61661 11.9889 7.20647 11.9889 5.61661C11.9889 4.02675 11.2423 2.61661 10.0811 1.70416C10.9382 1.04057 12.0027 0.639648 13.164 0.639648C15.9152 0.639648 18.141 2.86545 18.141 5.61661Z" fill="#F99F1C"/>
<path d="M17.671 8.69965V8.53375H17.7401V8.5061H17.5742V8.53375H17.6433V8.69965H17.671ZM17.989 8.69965V8.5061H17.9337L17.8784 8.64435L17.8231 8.5061H17.7678V8.69965H17.8092V8.54758L17.8645 8.672H17.906L17.9613 8.54758V8.69965H17.989Z" fill="black"/>
</g>
<defs>
<clipPath id="clip0_1_5361">
<rect width="39" height="24" fill="white" transform="translate(0.0351562 0.639648)"/>
</clipPath>
</defs>
</svg>
