<svg width="71" height="28" viewBox="0 0 71 28" fill="none" xmlns="http://www.w3.org/2000/svg">
<path d="M47.8255 15.9746L48.5254 16.1863C48.4787 16.3862 48.4087 16.5508 48.3037 16.6802C48.1988 16.8095 48.0821 16.9154 47.9305 16.9742C47.7788 17.0447 47.5922 17.08 47.3589 17.08C47.0789 17.08 46.8573 17.0447 46.6707 16.9624C46.4957 16.8801 46.3441 16.739 46.2158 16.5273C46.0874 16.3274 46.0175 16.0569 46.0175 15.7394C46.0175 15.3161 46.1341 14.9868 46.3557 14.7516C46.5774 14.5164 46.904 14.4106 47.3122 14.4106C47.6389 14.4106 47.8838 14.4811 48.0704 14.6105C48.2571 14.7399 48.3971 14.9398 48.4787 15.222L47.7788 15.3749C47.7555 15.2926 47.7322 15.2338 47.6972 15.1985C47.6505 15.1397 47.6039 15.0926 47.5339 15.0574C47.4639 15.0221 47.3939 15.0103 47.3239 15.0103C47.1489 15.0103 47.009 15.0809 46.9156 15.2338C46.8457 15.3396 46.8107 15.516 46.8107 15.7394C46.8107 16.0216 46.8573 16.2216 46.939 16.3274C47.0206 16.4332 47.1489 16.492 47.3006 16.492C47.4522 16.492 47.5689 16.445 47.6389 16.3627C47.7322 16.2568 47.7905 16.1392 47.8255 15.9746Z" fill="#225E63"/>
<path d="M48.8053 15.739C48.8053 15.3157 48.9219 14.9864 49.1552 14.7512C49.3885 14.516 49.7151 14.3984 50.1351 14.3984C50.5667 14.3984 50.8933 14.516 51.1266 14.7395C51.3599 14.9747 51.4765 15.2922 51.4765 15.7155C51.4765 16.0213 51.4299 16.2682 51.3249 16.4564C51.2199 16.6445 51.0799 16.7974 50.8816 16.9032C50.695 17.0091 50.45 17.0679 50.1701 17.0679C49.8785 17.0679 49.6452 17.0208 49.4469 16.9267C49.2602 16.8327 49.1086 16.6916 48.9803 16.4799C48.852 16.2682 48.8053 16.0448 48.8053 15.739ZM49.5985 15.739C49.5985 15.9977 49.6452 16.1859 49.7385 16.3035C49.8318 16.4211 49.9601 16.4799 50.1351 16.4799C50.31 16.4799 50.4384 16.4211 50.5317 16.3153C50.625 16.1977 50.6717 15.9977 50.6717 15.7155C50.6717 15.4686 50.625 15.2922 50.52 15.1863C50.4267 15.0687 50.2867 15.0217 50.1234 15.0217C49.9601 15.0217 49.8318 15.0805 49.7385 15.1981C49.6452 15.2922 49.5985 15.4803 49.5985 15.739Z" fill="#225E63"/>
<path d="M51.8848 14.4453H52.9229L53.3195 16.0211L53.7161 14.4453H54.7543V17.0324H54.1011V15.0568L53.5995 17.0324H53.0163L52.5147 15.0568V17.0324H51.8615V14.4453H51.8848Z" fill="#225E63"/>
<path d="M55.2676 14.4453H56.5857C56.8773 14.4453 57.0873 14.5159 57.2273 14.657C57.3672 14.7981 57.4372 14.9863 57.4372 15.245C57.4372 15.5037 57.3556 15.7153 57.2039 15.8565C57.0523 16.0093 56.8073 16.0799 56.4924 16.0799H56.0608V17.0442H55.2676V14.4453ZM56.0608 15.5507H56.2591C56.4107 15.5507 56.5157 15.5272 56.5857 15.4684C56.644 15.4096 56.679 15.3508 56.679 15.2685C56.679 15.1862 56.6557 15.1156 56.5974 15.0568C56.539 14.998 56.4457 14.9745 56.2941 14.9745H56.0724V15.5507H56.0608Z" fill="#225E63"/>
<path d="M57.8572 14.4453H58.6504V16.3974H59.8868V17.0324H57.8572V14.4453Z" fill="#225E63"/>
<path d="M60.2834 14.4453H61.0766V17.0324H60.2834V14.4453Z" fill="#225E63"/>
<path d="M63.223 16.5974H62.3248L62.1965 17.0207H61.3916L62.3598 14.4336H63.223L64.1911 17.0207H63.3629L63.223 16.5974ZM63.0597 16.0447L62.7797 15.1156L62.4998 16.0447H63.0597Z" fill="#225E63"/>
<path d="M64.436 14.4453H65.1709L66.1391 15.88V14.4453H66.8856V17.0324H66.1391L65.1826 15.6095V17.0324H64.436V14.4453Z" fill="#225E63"/>
<path d="M67.2356 14.4453H69.6502V15.0803H68.8453V17.0324H68.0521V15.0803H67.2473V14.4453H67.2356Z" fill="#225E63"/>
<path d="M38.2838 18.3849L40.5817 17.6558L39.8352 15.9859C39.2869 16.6797 38.7387 17.5734 38.2838 18.3849ZM37.5022 10.7529L32.9997 0.639648L0.0351562 2.52118L9.16863 27.6396L26.7474 22.0538C25.6276 20.431 25.2193 18.5025 26.5141 17.5617C27.9605 16.5033 30.1418 17.7263 31.5299 19.455C32.8713 17.1971 36.639 11.9406 37.5022 10.7529Z" fill="#225E63"/>
<path d="M31.9727 7.94814C33.3491 7.94814 34.4689 6.88977 34.4689 5.5727C34.4689 4.25563 33.3491 3.19727 31.9727 3.19727C30.5963 3.19727 29.4764 4.25563 29.4764 5.5727C29.4764 6.87801 30.5963 7.94814 31.9727 7.94814ZM29.9314 8.97122H34.014V19.7312H29.9314V8.97122Z" fill="#FEFEFE"/>
<path d="M27.9134 12.1113C27.9484 12.1231 27.9717 12.1113 27.9717 12.0761V9.34784C27.9717 9.31256 27.9484 9.27728 27.9134 9.25376C27.9134 9.25376 27.3768 8.90098 25.7437 8.8069C25.6621 8.75986 24.2273 8.7481 23.8424 8.8069C17.8934 9.28904 17.6718 13.6283 17.6718 13.8165V14.8748C17.6718 15.0042 17.6718 19.4376 23.8424 19.8256C24.449 19.8727 25.6271 19.8256 25.7437 19.8256C27.1668 19.8256 28.1467 19.3905 28.1467 19.3905C28.1817 19.3788 28.205 19.3435 28.205 19.3082V16.7564C28.205 16.7211 28.1817 16.7093 28.1583 16.7329C28.1583 16.7329 27.7151 17.0856 25.7787 17.2856C25.2305 17.3444 24.9622 17.3208 24.7639 17.2856C22.011 16.8152 21.8827 14.7925 21.8827 14.7925C21.8827 14.7572 21.8711 14.6985 21.8711 14.6749V13.8988C21.8711 13.8635 21.8711 13.8047 21.8827 13.7812C21.8827 13.7812 22.0694 11.6057 24.7639 11.3705H25.7787C26.9569 11.5234 27.9134 12.1113 27.9134 12.1113Z" fill="#FEFEFE"/>
<path d="M6.33362 19.696C6.33362 19.7313 6.35695 19.7548 6.39194 19.7548H10.3696C10.4046 19.7548 10.4279 19.7313 10.4279 19.696V16.568C10.4279 16.5327 10.4513 16.5092 10.4863 16.5092C10.4863 16.5092 16.8435 16.9678 16.8435 12.6755C16.8435 9.27702 12.8542 8.91247 11.5477 8.97127C11.5244 8.97127 6.39194 8.97127 6.39194 8.97127C6.35695 8.97127 6.33362 8.99479 6.33362 9.03007V19.696ZM10.3579 14.122V11.3114H11.3378C11.3378 11.3114 12.7492 11.3702 12.8659 12.3463C12.8892 12.4168 12.8892 12.899 12.8659 12.9225C12.6792 14.0632 11.4544 14.122 11.4544 14.122H10.3579Z" fill="#FEFEFE"/>
<path d="M32.0898 24.923C32.4164 24.923 32.6731 24.923 33.093 24.7349C34.5394 23.9705 39.4269 11.9405 44.5827 8.23619C44.6177 8.21267 44.6527 8.17739 44.6761 8.14211C44.7111 8.09507 44.711 8.04803 44.711 8.04803C44.711 8.04803 44.711 7.80109 43.9528 7.80109C39.3686 7.67173 34.5977 17.3734 32.0898 21.207C32.0548 21.254 31.8915 21.207 31.8915 21.207C31.8915 21.207 30.2118 19.2079 28.7537 18.4435C28.7187 18.4317 28.5554 18.373 28.3804 18.3847C28.2638 18.3847 27.5872 18.5258 27.2723 18.8551C26.899 19.2549 26.9107 19.4784 26.9107 19.9605C26.9107 19.9958 26.934 20.1604 26.9807 20.2427C27.3423 20.8777 28.9637 23.1356 30.3051 24.3821C30.5034 24.535 30.8184 24.923 32.0898 24.923Z" fill="#2BBC5D"/>
<path d="M45.9358 4.60272H49.7502C50.5084 4.60272 51.1149 4.70856 51.5699 4.90847C52.0364 5.12014 52.4214 5.41413 52.713 5.79044C53.0163 6.17851 53.2379 6.62537 53.3662 7.13103C53.5062 7.63669 53.5762 8.17763 53.5762 8.75385C53.5762 9.64758 53.4712 10.3414 53.2729 10.8353C53.0746 11.3292 52.7946 11.7408 52.433 12.0818C52.0714 12.4111 51.6865 12.6345 51.2782 12.7521C50.7183 12.905 50.2051 12.9755 49.7502 12.9755H45.9358V4.60272ZM48.502 6.49602V11.0705H49.1319C49.6685 11.0705 50.0534 11.0117 50.2751 10.8941C50.4967 10.7765 50.6833 10.5648 50.8116 10.2708C50.94 9.97685 51.0099 9.48295 51.0099 8.81265C51.0099 7.91892 50.87 7.31918 50.5784 6.98992C50.2867 6.66065 49.8201 6.49602 49.1436 6.49602H48.502Z" fill="#225E63"/>
<path d="M54.2877 10.2114L56.7373 10.0585C56.7956 10.4584 56.9006 10.7641 57.0639 10.9758C57.3322 11.3168 57.7055 11.4814 58.1954 11.4814C58.557 11.4814 58.8486 11.3991 59.0469 11.2227C59.2452 11.0463 59.3502 10.8464 59.3502 10.623C59.3502 10.4113 59.2569 10.2114 59.0703 10.035C58.8836 9.85863 58.4404 9.70575 57.7521 9.55288C56.6207 9.29417 55.8275 8.95314 55.3375 8.52979C54.8476 8.10645 54.6143 7.56551 54.6143 6.90697C54.6143 6.47187 54.7426 6.07204 54.9876 5.68398C55.2326 5.29591 55.6058 5.00192 56.1074 4.77849C56.609 4.55506 57.2856 4.44922 58.1487 4.44922C59.2102 4.44922 60.0268 4.64913 60.575 5.04896C61.1349 5.44878 61.4615 6.0838 61.5665 6.95401L59.1402 7.09513C59.0703 6.71882 58.9419 6.44835 58.732 6.27196C58.522 6.09556 58.2421 6.01324 57.8805 6.01324C57.5772 6.01324 57.3555 6.07204 57.2039 6.2014C57.0523 6.33075 56.9823 6.48363 56.9823 6.67178C56.9823 6.80114 57.0406 6.93049 57.1689 7.03633C57.2856 7.14216 57.5772 7.248 58.0321 7.34208C59.1519 7.58903 59.9568 7.83598 60.4467 8.08293C60.9366 8.32988 61.2866 8.64739 61.5082 9.01194C61.7298 9.37648 61.8348 9.79983 61.8348 10.2585C61.8348 10.7994 61.6832 11.2933 61.3915 11.7402C61.0999 12.1988 60.68 12.5398 60.1551 12.775C59.6302 13.0102 58.9536 13.1278 58.1487 13.1278C56.7373 13.1278 55.7575 12.8573 55.2092 12.3046C54.6727 11.7519 54.3694 11.0581 54.2877 10.2114Z" fill="#225E63"/>
<path d="M62.488 10.2114L64.9376 10.0585C64.996 10.4584 65.1009 10.7641 65.2642 10.9758C65.5325 11.3168 65.9058 11.4814 66.3957 11.4814C66.7573 11.4814 67.0489 11.3991 67.2472 11.2227C67.4455 11.0463 67.5505 10.8464 67.5505 10.623C67.5505 10.4113 67.4572 10.2114 67.2706 10.035C67.0839 9.85863 66.6407 9.70575 65.9525 9.55288C64.821 9.29417 64.0278 8.95314 63.5379 8.52979C63.0596 8.10645 62.8146 7.56551 62.8146 6.90697C62.8146 6.47187 62.943 6.07204 63.1879 5.68398C63.4329 5.29591 63.8061 5.00192 64.3077 4.77849C64.8093 4.55506 65.4859 4.44922 66.3491 4.44922C67.4105 4.44922 68.2271 4.64913 68.7753 5.04896C69.3352 5.44878 69.6618 6.0838 69.7668 6.95401L67.3406 7.09513C67.2706 6.71882 67.1423 6.44835 66.9323 6.27196C66.7223 6.09556 66.4424 6.01324 66.0808 6.01324C65.7775 6.01324 65.5559 6.07204 65.4042 6.2014C65.2526 6.33075 65.1826 6.48363 65.1826 6.67178C65.1826 6.80114 65.2409 6.93049 65.3692 7.03633C65.4859 7.14216 65.7775 7.248 66.2324 7.34208C67.3522 7.58903 68.1571 7.83598 68.647 8.08293C69.1369 8.32988 69.4869 8.64739 69.7085 9.01194C69.9301 9.37648 70.0351 9.79983 70.0351 10.2585C70.0351 10.7994 69.8835 11.2933 69.5918 11.7402C69.3002 12.1988 68.8803 12.5398 68.3554 12.775C67.8305 13.0102 67.1539 13.1278 66.3491 13.1278C64.9376 13.1278 63.9578 12.8573 63.4095 12.3046C62.8613 11.7519 62.558 11.0581 62.488 10.2114Z" fill="#225E63"/>
</svg>
