<svg width="40" height="21" viewBox="0 0 40 21" fill="none" xmlns="http://www.w3.org/2000/svg">
<path d="M2.11341 7.47314L0.0302734 1.08716H0.921628L1.91478 4.23421C2.18914 5.09578 2.42625 5.87292 2.59633 6.62151H2.61619C2.7962 5.87664 3.06187 5.07591 3.34492 4.24291L4.42498 1.0884H5.30516L3.01966 7.47314H2.11341Z" fill="#0D2B67"/>
<path d="M5.75119 5.33036C5.77105 6.45883 6.48985 6.92189 7.3241 6.92189C7.75959 6.93553 8.19286 6.85463 8.59409 6.68477L8.73065 7.28687C8.24768 7.48772 7.72781 7.58459 7.20492 7.57116C5.79216 7.57116 4.94922 6.64132 4.94922 5.25835C4.94922 3.87539 5.76484 2.7854 7.09939 2.7854C8.59781 2.7854 8.99632 4.10381 8.99632 4.94551C8.99454 5.07553 8.98458 5.20531 8.96652 5.33408L5.75119 5.33036ZM8.19559 4.73322C8.20676 4.20313 7.97834 3.37757 7.03981 3.37757C6.19687 3.37757 5.82692 4.15471 5.75988 4.73322H8.19559Z" fill="#0D2B67"/>
<path d="M9.64857 4.31649C9.64857 3.7777 9.63864 3.31216 9.61133 2.88511H10.3438L10.3711 3.78515H10.4083C10.6169 3.16443 11.1184 2.78083 11.6796 2.78083C11.7591 2.77988 11.8384 2.78948 11.9154 2.80938V3.59645C11.8221 3.57592 11.7267 3.56634 11.6312 3.5679C11.044 3.5679 10.6281 4.01358 10.5139 4.63802C10.4899 4.76661 10.477 4.89703 10.4754 5.02783V7.47347H9.64857V4.31649Z" fill="#0D2B67"/>
<path d="M13.3357 1.59704C13.3357 1.73401 13.2813 1.86537 13.1845 1.96222C13.0876 2.05907 12.9562 2.11348 12.8193 2.11348C12.6823 2.11348 12.551 2.05907 12.4541 1.96222C12.3572 1.86537 12.3028 1.73401 12.3028 1.59704C12.3015 1.52815 12.3141 1.4597 12.34 1.39586C12.3659 1.33202 12.4046 1.27411 12.4536 1.22568C12.5026 1.17725 12.561 1.1393 12.6251 1.11415C12.6893 1.08899 12.7579 1.07716 12.8267 1.07936C12.8952 1.07723 12.9634 1.08929 13.027 1.11479C13.0906 1.14029 13.1482 1.17867 13.1963 1.22753C13.2443 1.27639 13.2817 1.33466 13.3062 1.39868C13.3306 1.4627 13.3415 1.53108 13.3382 1.59953L13.3357 1.59704ZM12.4084 2.88814H13.2438V7.47403H12.4084V2.88814Z" fill="#0D2B67"/>
<path d="M14.3299 7.47289V3.52014H13.6855V2.88576H14.3299V2.66727C14.3299 2.02296 14.4726 1.43576 14.8599 1.06581C15.163 0.784157 15.5636 0.631444 15.9772 0.639989C16.2202 0.639188 16.4611 0.684256 16.6874 0.772824L16.5744 1.41713C16.4069 1.34451 16.2255 1.30935 16.043 1.31409C15.3329 1.31409 15.1542 1.93481 15.1542 2.64119V2.88948H16.2615V3.52386H15.1542V7.47289H14.3299Z" fill="#0D2B67"/>
<path d="M18.0125 1.59731C18.0125 1.73428 17.9581 1.86564 17.8612 1.96249C17.7644 2.05934 17.633 2.11375 17.4961 2.11375C17.3591 2.11375 17.2277 2.05934 17.1309 1.96249C17.034 1.86564 16.9796 1.73428 16.9796 1.59731C16.9781 1.52848 16.9905 1.46005 17.0162 1.39616C17.0419 1.33228 17.0803 1.27427 17.129 1.22564C17.1777 1.17702 17.2358 1.13878 17.2998 1.11326C17.3637 1.08773 17.4322 1.07545 17.501 1.07715C17.5695 1.07501 17.6377 1.08707 17.7013 1.11257C17.7649 1.13807 17.8225 1.17646 17.8706 1.22532C17.9186 1.27417 17.956 1.33245 17.9804 1.39647C18.0049 1.46049 18.0158 1.52887 18.0125 1.59731ZM17.0851 2.88592H17.9169V7.47181H17.0851V2.88592Z" fill="#0D2B67"/>
<path d="M19.3876 5.33036C19.4074 6.45883 20.1262 6.92189 20.9605 6.92189C21.396 6.9356 21.8293 6.85471 22.2305 6.68477L22.3732 7.28687C21.8903 7.48772 21.3704 7.58459 20.8475 7.57116C19.4347 7.57116 18.5918 6.64132 18.5918 5.25835C18.5918 3.87539 19.4074 2.7854 20.7407 2.7854C22.2392 2.7854 22.6364 4.10381 22.6364 4.94551C22.6351 5.07555 22.6252 5.20536 22.6066 5.33408L19.3876 5.33036ZM21.832 4.73322C21.8406 4.20313 21.6135 3.37757 20.6762 3.37757C19.8332 3.37757 19.4645 4.15471 19.3963 4.73322H21.832Z" fill="#0D2B67"/>
<path d="M27.2532 0.745361V6.28716C27.2532 6.69559 27.2619 7.15617 27.2905 7.47273H26.5456L26.5071 6.67697H26.4823C26.2265 7.18844 25.6691 7.57577 24.9193 7.57577C23.8107 7.57577 22.9591 6.63724 22.9591 5.24434C22.9491 3.71861 23.8976 2.78132 25.0149 2.78132C25.7151 2.78132 26.1893 3.11403 26.3966 3.48274H26.4165V0.745361H27.2532ZM26.4177 4.75273C26.4194 4.63456 26.4069 4.51661 26.3805 4.40141C26.3208 4.12705 26.1688 3.88147 25.9499 3.70568C25.7309 3.5299 25.4583 3.43455 25.1775 3.43557C24.3085 3.43557 23.8032 4.19285 23.8032 5.20835C23.8032 6.13694 24.2564 6.90416 25.1589 6.90416C25.4454 6.90327 25.7229 6.8042 25.9452 6.62347C26.1675 6.44275 26.3211 6.19128 26.3805 5.911C26.4079 5.79345 26.4204 5.67291 26.4177 5.55222V4.75273Z" fill="#0D2B67"/>
<path d="M30.3398 7.47274C30.3597 7.15865 30.3771 6.6956 30.3771 6.28716V0.745361H31.2002V3.62551H31.2188C31.513 3.11403 32.0431 2.78257 32.783 2.78257C33.9202 2.78257 34.7246 3.73103 34.7172 5.12269C34.7172 6.76139 33.683 7.57702 32.6601 7.57702C31.9959 7.57702 31.4658 7.32128 31.1244 6.71546H31.0971L31.0574 7.47274H30.3398ZM31.2089 5.63416C31.2114 5.73617 31.2243 5.83767 31.2473 5.93707C31.316 6.21533 31.4757 6.46264 31.7011 6.63967C31.9265 6.81671 32.2047 6.9133 32.4913 6.91409C33.3603 6.91409 33.8842 6.20398 33.8842 5.15124C33.8842 4.23257 33.4099 3.4455 32.5186 3.4455C32.2234 3.451 31.9385 3.55448 31.7085 3.73967C31.4786 3.92485 31.3168 4.18123 31.2486 4.46845C31.2205 4.57813 31.2043 4.6905 31.2002 4.80364L31.2089 5.63416Z" fill="#0D2B67"/>
<path d="M35.6297 2.88574L36.634 5.59705C36.7383 5.89997 36.8525 6.25998 36.927 6.53558H36.9456C37.0325 6.26123 37.1256 5.91486 37.2411 5.57843L38.1523 2.88574H39.035L37.7799 6.15446C37.184 7.72737 36.7756 8.53306 36.207 9.02592C35.9182 9.29125 35.5659 9.47767 35.184 9.56718L34.9755 8.86577C35.2427 8.77762 35.4905 8.63896 35.7054 8.45733C36.008 8.20635 36.2482 7.88845 36.4068 7.52874C36.4403 7.4669 36.4625 7.39966 36.4726 7.33011C36.4654 7.25469 36.4461 7.18093 36.4155 7.11161L34.7197 2.89071L35.6297 2.88574Z" fill="#0D2B67"/>
<path d="M13.8609 10.6015L11.337 16.9937L10.3141 11.5587C10.2729 11.292 10.1375 11.0489 9.9326 10.8733C9.72766 10.6977 9.46664 10.6013 9.19679 10.6015H5.05782L5.00195 10.8734C5.84986 11.0596 6.81322 11.3563 7.39793 11.6717C7.75547 11.8678 7.85727 12.0379 7.97272 12.4997L9.91185 19.993H12.4804L16.4158 10.6015H13.8609Z" fill="#0D2B67"/>
<path d="M17.4559 10.6001L15.4473 19.9916H17.878L19.8817 10.6001H17.4559Z" fill="#0D2B67"/>
<path d="M23.0706 13.2048C23.0781 12.8683 23.3996 12.5108 24.101 12.4152C24.9229 12.3392 25.7502 12.4845 26.497 12.8361L26.9228 10.8498C26.1965 10.5762 25.4271 10.4345 24.651 10.4314C22.2488 10.4314 20.5617 11.7101 20.5443 13.535C20.5319 14.8845 21.7522 15.6454 22.6709 16.0899C23.6181 16.5492 23.9371 16.8434 23.9309 17.2581C23.9309 17.8887 23.1761 18.1643 22.4797 18.1743C21.2569 18.1941 20.5493 17.8453 19.9832 17.5833L19.5449 19.6404C20.1098 19.8999 21.1588 20.1271 22.2475 20.137C24.795 20.137 26.4684 18.8744 26.4684 16.9241C26.4784 14.4413 23.0421 14.3084 23.0656 13.1998" fill="#0D2B67"/>
<path d="M30.1041 16.6673L31.3952 13.1403L32.1215 16.6673H30.1041ZM31.0265 10.6016C30.8048 10.5994 30.5875 10.6639 30.4028 10.7868C30.2182 10.9097 30.0748 11.0852 29.9912 11.2906L26.3475 19.9919H28.8999L29.4065 18.589H32.5101L32.8018 19.9919H35.0538L33.101 10.6016H31.0265Z" fill="#0D2B67"/>
</svg>
